# xmcd CD database file
#
# Track frame offsets:
#	150
#	25867
#	49491
#	68768
#	99624
#	117220
#	137401
#	153074
#	166130
#	184900
#	209996
#
# Disc length: 3335 seconds
#
# Revision: 0
# Processed by: cddbd v1.5.1PL0 Copyright (c) Steve Scherf et al.
# Submitted via: CDex 1.50
#
DISCID=970d050b
DTITLE=Cissy Strut - Crazy In My Room
DYEAR=2003
DGENRE=Blues
TTITLE0=Give Me My Honey Back
TTITLE1=Crazy In My Room
TTITLE2=Blind
TTITLE3=Turn Around
TTITLE4=Hello Ed
TTITLE5=She's Payin' The Bill
TTITLE6=Everybody
TTITLE7=Mirror
TTITLE8=You Gave Me My Blues Back
TTITLE9=Guitar Junkies
TTITLE10=Don't You Lie (live)
EXTD=YEAR: 2003
EXTT0=
EXTT1=
EXTT2=
EXTT3=
EXTT4=
EXTT5=
EXTT6=
EXTT7=
EXTT8=
EXTT9=
EXTT10=
PLAYORDER=
